<?xml version="1.0" encoding="UTF-8"?>
<svg version="1.1" xmlns="http://www.w3.org/2000/svg" width="300" height="89">
<path d="M0 0 C0.76183594 0.09023438 1.52367187 0.18046875 2.30859375 0.2734375 C4.5625 0.625 4.5625 0.625 6.72265625 1.2890625 C7.32980469 1.39992187 7.93695313 1.51078125 8.5625 1.625 C9.2225 0.965 9.8825 0.305 10.5625 -0.375 C11.5525 -0.375 12.5425 -0.375 13.5625 -0.375 C13.5625 9.195 13.5625 18.765 13.5625 28.625 C11.2525 27.965 8.9425 27.305 6.5625 26.625 C4.55411804 27.26597297 2.55422182 27.93399447 0.5625 28.625 C-4.00970115 28.8418633 -6.71181291 28.20870483 -10.3125 25.3125 C-14.41048121 20.12975906 -15.1721845 16.13543499 -14.4375 9.625 C-12.88142346 5.42359335 -11.30700532 2.92251878 -7.4375 0.625 C-4.4102394 -0.38408687 -3.08070022 -0.38443814 0 0 Z M-8.4375 8.625 C-9.80116962 12.63234814 -9.87887194 15.60984453 -8.1875 19.5 C-5.87251985 22.31104733 -4.18400922 23.51140077 -0.5625 24.0625 C2.69861742 23.83879466 2.69861742 23.83879466 5.4375 21.6875 C7.92254541 18.10611103 8.30377589 16.0597017 8.046875 11.78515625 C7.2351873 8.16529093 5.5765178 6.65618591 2.5625 4.625 C-2.4076535 3.69309622 -5.12766509 4.84233153 -8.4375 8.625 Z " fill="#582DC3" transform="translate(268.4375,33.375)"/>
<path d="M0 0 C3.71753908 2.80175507 5.38044022 5.49193583 6.1640625 10.01953125 C6.21997296 14.53230423 5.77955564 17.9709133 3.4765625 21.89453125 C-0.23910897 25.30893206 -3.29717421 26.85466375 -8.3359375 27.39453125 C-13.6005332 26.83046742 -16.56532296 25.35702023 -20.2109375 21.51953125 C-22.49207741 16.60630684 -22.60516468 12.3486103 -21.8359375 7.01953125 C-19.98528323 2.87406568 -18.51229321 1.43064943 -14.6484375 -0.91796875 C-9.46595681 -2.36226665 -4.86219975 -2.59662157 0 0 Z M-14.8359375 5.01953125 C-16.28236765 9.3588217 -16.35542914 13.48511138 -15.8359375 18.01953125 C-14.47831596 20.7951797 -14.47831596 20.7951797 -11.8359375 22.01953125 C-7.50129992 22.72883558 -5.58248399 22.51193425 -1.8984375 20.08203125 C0.87978861 15.95678642 0.94995705 12.85233109 0.1640625 8.01953125 C-0.56279338 5.38328484 -0.56279338 5.38328484 -2.8359375 4.01953125 C-7.56935804 2.83837976 -10.67856542 2.24794986 -14.8359375 5.01953125 Z " fill="#5C28D0" transform="translate(202.8359375,34.98046875)"/>
<path d="M0 0 C1.8828125 0.27734375 1.8828125 0.27734375 4 1 C5.0546875 2.50390625 5.0546875 2.50390625 5.875 4.5625 C6.19726562 5.3565625 6.51953125 6.150625 6.8515625 6.96875 C7.23054688 7.9690625 7.60953125 8.969375 8 10 C8.25104492 10.65742187 8.50208984 11.31484375 8.76074219 11.9921875 C10.53707503 16.6505941 12.27779191 21.32133468 14 26 C15.93933432 21.74838246 17.82624559 17.5112226 19.4609375 13.1328125 C19.71536621 12.46193604 19.96979492 11.79105957 20.23193359 11.09985352 C20.73866692 9.75570552 21.2340673 8.4072231 21.71728516 7.05444336 C22.79861107 4.21037293 23.56807144 2.31494791 26.0625 0.49609375 C28 0 28 0 30 1 C27.97113979 8.07279227 25.65231487 14.98855895 23.0625 21.875 C22.72798828 22.79796875 22.39347656 23.7209375 22.04882812 24.671875 C18.95233201 32.90533288 18.95233201 32.90533288 15 36 C10.18585132 33.72684929 8.91772845 31.4207866 7.0703125 26.50390625 C6.83085907 25.87395248 6.59140564 25.24399872 6.34469604 24.59495544 C5.84440267 23.26742447 5.35236432 21.93675641 4.86816406 20.60327148 C4.12585824 18.56485678 3.35431916 16.53939125 2.578125 14.51367188 C-1.46955532 3.6795535 -1.46955532 3.6795535 0 0 Z " fill="#5526C8" transform="translate(98,26)"/>
<path d="M0 0 C2.01822917 0.29296875 4.03645833 0.5859375 6.0546875 0.87890625 C8.08140667 1.1684297 8.08140667 1.1684297 10 0 C16.98678414 -0.57268722 16.98678414 -0.57268722 20.875 1.625 C25.17802196 6.43425984 25.34111589 11.97785206 25.3125 18.1875 C25.32861328 18.89841797 25.34472656 19.60933594 25.36132812 20.34179688 C25.36615987 25.47794013 25.36615987 25.47794013 23.60546875 27.98828125 C22 29 22 29 20 29 C19.95101562 27.99839844 19.90203125 26.99679688 19.8515625 25.96484375 C19.77645921 24.62237241 19.70091474 23.2799257 19.625 21.9375 C19.55539063 20.62652344 19.48578125 19.31554687 19.4140625 17.96484375 C19.00194564 14.01863043 18.20243433 10.75882927 17 7 C11.71800407 5.80011955 11.71800407 5.80011955 7 8 C5.6072332 11.92520897 5.65987174 16.12336373 5.4375 20.25 C5.39431641 20.99507812 5.35113281 21.74015625 5.30664062 22.5078125 C5.20103275 24.338349 5.10005799 26.16915176 5 28 C3.0625 28.5625 3.0625 28.5625 1 29 C0 28 0 28 -0.11352539 25.31616211 C-0.10828857 24.14835205 -0.10305176 22.98054199 -0.09765625 21.77734375 C-0.09443359 20.51728516 -0.09121094 19.25722656 -0.08789062 17.95898438 C-0.07953403 16.61848891 -0.07106907 15.27799412 -0.0625 13.9375 C-0.0574866 12.59310058 -0.05292342 11.2486994 -0.04882812 9.90429688 C-0.03699488 6.60282059 -0.02050971 3.30143197 0 0 Z " fill="#6222E9" transform="translate(214,33)"/>
<path d="M0 0 C3.68754281 2.86808886 5.60321501 5.55568412 7 10 C3.24797995 9.11767565 -0.33861657 7.88410156 -3.9765625 6.62109375 C-5.96589036 5.90218755 -5.96589036 5.90218755 -8 6 C-7.95892392 7.94200557 -7.95892392 7.94200557 -7 10 C-4.30002413 11.47847771 -4.30002413 11.47847771 -1.0625 12.5625 C4.79444153 14.6916623 4.79444153 14.6916623 7 18 C6.67425569 24.08056042 6.67425569 24.08056042 4.625 26.875 C0.93511027 29.42953905 -2.66435942 29.2990097 -7 29 C-10.5386994 27.34860695 -11.81070153 26.28394771 -14 23 C-14 21.68 -14 20.36 -14 19 C-13.01 19.433125 -13.01 19.433125 -12 19.875 C-7.89097286 21.41588518 -3.41732484 23 1 23 C0.87216413 21.03993998 0.87216413 21.03993998 0 19 C-2.17836031 17.82018048 -2.17836031 17.82018048 -4.8125 17.0625 C-9.13293708 15.47173735 -11.85036913 14.29926174 -14 10 C-14.125 6.9375 -14.125 6.9375 -13 4 C-8.83924015 0.235503 -5.55629984 -0.9092127 0 0 Z " fill="#5722D6" transform="translate(158,33)"/>
<path d="M0 0 C3.9820949 2.26288787 7.57783236 4.8662677 11.125 7.75 C12.15882812 8.56984375 13.19265625 9.3896875 14.2578125 10.234375 C17.88291006 13.8904563 19.92802431 17.42781619 20.07421875 22.65234375 C19.88279297 23.78349609 19.88279297 23.78349609 19.6875 24.9375 C19.56761719 25.70964844 19.44773437 26.48179688 19.32421875 27.27734375 C19.21722656 27.84582031 19.11023438 28.41429688 19 29 C14.35266775 27.54824556 11.27850091 24.8485602 7.8125 21.5625 C7.27947266 21.07201172 6.74644531 20.58152344 6.19726562 20.07617188 C2.15383509 16.30738945 -0.2465411 13.52536525 -1 8 C-1.0777346 5.66796188 -1.08967728 3.33160941 -1 1 C-0.67 0.67 -0.34 0.34 0 0 Z " fill="#524AD7" transform="translate(47,49)"/>
<path d="M0 0 C4.19354792 0.53427413 6.88815911 3.04936756 10 5.6875 C10.52078125 6.10966797 11.0415625 6.53183594 11.578125 6.96679688 C15.81225252 10.51127484 19.59610765 14.13236433 20.390625 19.7734375 C20.32101563 21.06121094 20.32101563 21.06121094 20.25 22.375 C20.21390625 23.24898437 20.1778125 24.12296875 20.140625 25.0234375 C20.07101563 26.00183594 20.07101563 26.00183594 20 27 C13.31092756 27 8.90062316 21.8415607 4.2734375 17.30859375 C-0.53131786 11.9278297 -0.11563325 6.82236167 0 0 Z " fill="#544AE4" transform="translate(23,12)"/>
<path d="M0 0 C1.03249022 12.71492584 1.03249022 12.71492584 -2.3125 16.75 C-3.94140625 18.3046875 -3.94140625 18.3046875 -6 20 C-6.91652344 20.78632812 -7.83304688 21.57265625 -8.77734375 22.3828125 C-16.18300971 28.59150485 -16.18300971 28.59150485 -19 30 C-20.76578414 19.42656966 -20.76578414 19.42656966 -18.4140625 14.7890625 C-15.00122667 10.47116524 -10.35779725 7.3019164 -6 4 C-5.07960938 3.25105469 -4.15921875 2.50210938 -3.2109375 1.73046875 C-1 0 -1 0 0 0 Z " fill="#524AD8" transform="translate(43,49)"/>
<path d="M0 0 C8.77919193 0.15771003 14.44586815 4.2708509 20.5 10.3125 C21.03625 10.89644531 21.5725 11.48039062 22.125 12.08203125 C23.46499864 13.62032588 23.46499864 13.62032588 25.5 14.5 C25.17 15.49 24.84 16.48 24.5 17.5 C11.01133307 18.39263237 4.82053466 13.29129339 -4.9375 4.765625 C-5.783125 4.01796875 -6.62875 3.2703125 -7.5 2.5 C-4.89878813 -0.10121187 -3.62951589 0.11225307 0 0 Z " fill="#5349D0" transform="translate(60.5,46.5)"/>
<path d="M0 0 C1.63001953 0.15275391 1.63001953 0.15275391 3.29296875 0.30859375 C4.12441406 0.39238281 4.95585938 0.47617187 5.8125 0.5625 C4.25937321 5.22188037 0.5082274 7.48037619 -3.1875 10.5625 C-4.0125 11.305 -4.8375 12.0475 -5.6875 12.8125 C-12.80640356 17.79573249 -18.72837167 17.85313907 -27.1875 16.5625 C-20.52830914 7.86855637 -11.47239042 -1.11023133 0 0 Z " fill="#5449E3" transform="translate(80.1875,26.4375)"/>
<path d="M0 0 C0.33 0 0.66 0 1 0 C1.10853983 2.22808159 1.18583307 4.45769932 1.25 6.6875 C1.29640625 7.92886719 1.3428125 9.17023437 1.390625 10.44921875 C0.68786644 16.83729402 -3.71978418 19.81999023 -8.5 23.6875 C-9.4384375 24.45449219 -10.376875 25.22148438 -11.34375 26.01171875 C-13.53328092 27.65064704 -15.51072703 28.90213669 -18 30 C-18.08160748 28.10489301 -18.13946459 26.20875496 -18.1875 24.3125 C-18.22230469 23.25675781 -18.25710937 22.20101562 -18.29296875 21.11328125 C-17.83600071 16.25723426 -16.01110189 13.91539453 -12.44140625 10.68359375 C-11.49136719 9.94238281 -10.54132812 9.20117188 -9.5625 8.4375 C-6.16435735 5.76984243 -3.04554771 3.05942264 0 0 Z " fill="#5148CB" transform="translate(65,11)"/>
<path d="M0 0 C0.66 0.66 1.32 1.32 2 2 C-0.15487876 3.95210225 -2.32241367 5.8860027 -4.5 7.8125 C-5.10070312 8.35970703 -5.70140625 8.90691406 -6.3203125 9.47070312 C-11.52243831 14.03639865 -16.36445362 16.92078511 -23.40625 17.07421875 C-24.93765625 16.88279297 -24.93765625 16.88279297 -26.5 16.6875 C-27.5415625 16.56761719 -28.583125 16.44773437 -29.65625 16.32421875 C-30.4296875 16.21722656 -31.203125 16.11023438 -32 16 C-22.3160661 6.00368113 -14.78245607 -1.70396574 0 0 Z " fill="#574DE3" transform="translate(35,47)"/>
<path d="M0 0 C13.62376446 -1.03326303 13.62376446 -1.03326303 18.3125 2.5 C19.565236 3.6413213 20.79296106 4.81045437 22 6 C23.66634289 7.41704749 25.33301454 8.83370847 27 10.25 C29.3125 12.265625 29.3125 12.265625 31 14 C31 14.66 31 15.32 31 16 C24.58764122 18.13745293 18.94261876 16.95498541 13 14 C10.46095519 12.17561233 8.23804082 10.11554672 6 7.9375 C5.12408203 7.12442383 5.12408203 7.12442383 4.23046875 6.29492188 C2.77161377 4.91293864 1.37934547 3.46134924 0 2 C0 1.34 0 0.68 0 0 Z " fill="#5349E5" transform="translate(5,27)"/>
<path d="M0 0 C0.99 0.33 1.98 0.66 3 1 C3.08694042 5.10403363 3.14037149 9.20783129 3.1875 13.3125 C3.22520508 15.06336914 3.22520508 15.06336914 3.26367188 16.84960938 C3.27333984 17.96787109 3.28300781 19.08613281 3.29296875 20.23828125 C3.3086792 21.26993408 3.32438965 22.30158691 3.34057617 23.36450195 C3 26 3 26 1.48168945 27.86010742 C0.99273193 28.23627197 0.50377441 28.61243652 0 29 C-0.99 28.67 -1.98 28.34 -3 28 C-3.05827558 24.4375692 -3.09368885 20.87526181 -3.125 17.3125 C-3.14175781 16.30509766 -3.15851563 15.29769531 -3.17578125 14.25976562 C-3.18544922 12.79506836 -3.18544922 12.79506836 -3.1953125 11.30078125 C-3.20578613 10.40528564 -3.21625977 9.50979004 -3.22705078 8.5871582 C-2.95227841 5.45623047 -2.2925172 2.2925172 0 0 Z " fill="#5423CC" transform="translate(135,33)"/>
<path d="M0 0 C3.11476139 0.09044679 4.24418468 0.40703917 7.0625 2 C11.36552196 6.80925984 11.52861589 12.35285206 11.5 18.5625 C11.51611328 19.27341797 11.53222656 19.98433594 11.54882812 20.71679688 C11.55365987 25.85294013 11.55365987 25.85294013 9.79296875 28.36328125 C8.1875 29.375 8.1875 29.375 6.1875 29.375 C6.15011719 28.41980469 6.11273438 27.46460937 6.07421875 26.48046875 C5.66307754 18.39469164 4.74735512 11.11896422 2.1875 3.375 C3.1775 3.045 4.1675 2.715 5.1875 2.375 C1.5575 2.375 -2.0725 2.375 -5.8125 2.375 C-3.8125 0.375 -3.8125 0.375 0 0 Z " fill="#5629C3" transform="translate(227.8125,32.625)"/>
<path d="M0 0 C1.65 0 3.3 0 5 0 C5 8.91 5 17.82 5 27 C3.35 27 1.7 27 0 27 C0 18.09 0 9.18 0 0 Z " fill="#6536D1" transform="translate(170,34)"/>
<path d="M0 0 C1.65 0 3.3 0 5 0 C5 8.91 5 17.82 5 27 C3.35 27 1.7 27 0 27 C0 18.09 0 9.18 0 0 Z " fill="#6033CB" transform="translate(289,34)"/>
<path d="M0 0 C0.66 0.33 1.32 0.66 2 1 C2 1.66 2 2.32 2 3 C1.01 3.495 1.01 3.495 0 4 C0 4.66 0 5.32 0 6 C-0.99 6 -1.98 6 -3 6 C-3 6.66 -3 7.32 -3 8 C-4.32 8.33 -5.64 8.66 -7 9 C-6.67 10.32 -6.34 11.64 -6 13 C-7.98 14.32 -9.96 15.64 -12 17 C-13.03380251 11.91287277 -13.89626031 7.47513757 -11.0625 2.875 C-7.78465147 -1.0473693 -4.84413674 -0.63529662 0 0 Z " fill="#534AE5" transform="translate(36,62)"/>
<path d="M0 0 C13.80159755 -0.86140345 13.80159755 -0.86140345 18.375 2.5 C19.24125 3.325 20.1075 4.15 21 5 C17.89448334 5 16.64738916 4.4606285 14 3 C14 3.66 14 4.32 14 5 C13.01 5.66 12.02 6.32 11 7 C12.39655297 10.49873271 13.71260484 11.70891831 17.125 13.25 C17.84945313 13.58515625 18.57390625 13.9203125 19.3203125 14.265625 C19.87460937 14.50796875 20.42890625 14.7503125 21 15 C19.1640625 15.5859375 19.1640625 15.5859375 17 16 C10.80039206 12.75258631 2.22645047 6.67935142 0 0 Z " fill="#4F48CF" transform="translate(5,27)"/>
<path d="M0 0 C0.66 0 1.32 0 2 0 C2 8.25 2 16.5 2 25 C0.68 24.67 -0.64 24.34 -2 24 C-2 23.34 -2 22.68 -2 22 C-2.66 22 -3.32 22 -4 22 C-3.84015625 21.45472656 -3.6803125 20.90945312 -3.515625 20.34765625 C-2.92677401 17.66659986 -2.7948034 15.1817085 -2.75 12.4375 C-2.72421875 11.48746094 -2.6984375 10.53742187 -2.671875 9.55859375 C-3.05429358 6.57663935 -3.79035509 5.91308731 -6 4 C-6 3.34 -6 2.68 -6 2 C-4.02 2 -2.04 2 0 2 C0 1.34 0 0.68 0 0 Z " fill="#6529E8" transform="translate(279,35)"/>
<path d="M0 0 C0.66 0.33 1.32 0.66 2 1 C0.92492371 2.29854721 -0.16043736 3.58858361 -1.25 4.875 C-1.85328125 5.59429687 -2.4565625 6.31359375 -3.078125 7.0546875 C-4.97087634 8.97052118 -6.53657727 9.96449045 -9 11 C-9 11.66 -9 12.32 -9 13 C-6.03 13 -3.06 13 0 13 C0 12.34 0 11.68 0 11 C1.32 11 2.64 11 4 11 C4 10.01 4 9.02 4 8 C6.25 5.25 6.25 5.25 9 3 C11.171875 3.359375 11.171875 3.359375 13 4 C7.83880981 9.93969374 2.88606896 14.39976119 -5 16 C-8.74322343 16.01423279 -12.31575478 15.6443927 -16 15 C-11.30217584 9.06590633 -6.01350104 4.57548992 0 0 Z " fill="#504AC2" transform="translate(69,28)"/>
<path d="M0 0 C5.85408195 2.11397404 9.12016249 4.38431686 12 10 C12 10.66 12 11.32 12 12 C5.78733655 13.33998624 5.78733655 13.33998624 2.25 11.8125 C-0.01798861 9.98550918 -1.60372858 8.55983093 -3 6 C-2.73495121 2.99611368 -2.16695725 2.16695725 0 0 Z " fill="#564CDA" transform="translate(69,49)"/>
<path d="M0 0 C2.97 0 5.94 0 9 0 C6 2 6 2 4 2 C4 3.32 4 4.64 4 6 C3.01 6 2.02 6 1 6 C0.9071875 7.1446875 0.9071875 7.1446875 0.8125 8.3125 C0 11 0 11 -2.0625 12.8125 C-6.07161834 14.43320741 -8.68028502 14.41803693 -13 14 C-15 12.5 -15 12.5 -16 11 C-12.99382731 7.99382731 -10.17618402 8.40414684 -6 8 C-6 8.66 -6 9.32 -6 10 C-4.68 10 -3.36 10 -2 10 C-1.67 8.02 -1.34 6.04 -1 4 C-0.01 4 0.98 4 2 4 C2 3.01 2 2.02 2 1 C1.34 0.67 0.68 0.34 0 0 Z " fill="#524BE6" transform="translate(24,49)"/>
<path d="M0 0 C0.33 0.66 0.66 1.32 1 2 C0.67 2.99 0.34 3.98 0 5 C-0.66 5 -1.32 5 -2 5 C-1.67 6.65 -1.34 8.3 -1 10 C-2.32 9.34 -3.64 8.68 -5 8 C-4.79375 8.61875 -4.5875 9.2375 -4.375 9.875 C-4.25125 10.57625 -4.1275 11.2775 -4 12 C-4.66 12.66 -5.32 13.32 -6 14 C-6.99 15.485 -6.99 15.485 -8 17 C-8.99 17 -9.98 17 -11 17 C-11.33 16.01 -11.66 15.02 -12 14 C-12.66 14.66 -13.32 15.32 -14 16 C-14 14.35 -14 12.7 -14 11 C-13.34 11 -12.68 11 -12 11 C-12 10.34 -12 9.68 -12 9 C-11.01 9 -10.02 9 -9 9 C-9.33 8.34 -9.66 7.68 -10 7 C-8.35 6.67 -6.7 6.34 -5 6 C-5 5.01 -5 4.02 -5 3 C-2.5 1.3125 -2.5 1.3125 0 0 Z " fill="#554AE7" transform="translate(63,17)"/>
<path d="M0 0 C2.64 0.66 5.28 1.32 8 2 C4 3 4 3 1 2 C1 10.25 1 18.5 1 27 C1.66 27 2.32 27 3 27 C3 21.06 3 15.12 3 9 C3.66 9 4.32 9 5 9 C5.33 8.01 5.66 7.02 6 6 C6.66 6.33 7.32 6.66 8 7 C7.52433594 7.98033203 7.52433594 7.98033203 7.0390625 8.98046875 C5.7271334 12.79295445 5.54673638 16.30889571 5.375 20.3125 C5.33632812 21.05306641 5.29765625 21.79363281 5.2578125 22.55664062 C5.16418295 24.37071309 5.08103149 26.18532116 5 28 C3.0625 28.5625 3.0625 28.5625 1 29 C0 28 0 28 -0.11352539 25.31616211 C-0.10828857 24.14835205 -0.10305176 22.98054199 -0.09765625 21.77734375 C-0.09443359 20.51728516 -0.09121094 19.25722656 -0.08789062 17.95898438 C-0.07953403 16.61848891 -0.07106907 15.27799412 -0.0625 13.9375 C-0.0574866 12.59310058 -0.05292342 11.2486994 -0.04882812 9.90429688 C-0.03699488 6.60282059 -0.02050971 3.30143197 0 0 Z " fill="#582EC3" transform="translate(214,33)"/>
<path d="M0 0 C7.28695785 -0.474377 11.97181491 -0.28670939 18 4 C18 8.62 18 13.24 18 18 C17.01 18 16.02 18 15 18 C14.67 13.71 14.34 9.42 14 5 C11.03 4.505 11.03 4.505 8 4 C8 3.34 8 2.68 8 2 C5.36 2 2.72 2 0 2 C0 1.34 0 0.68 0 0 Z " fill="#551DDF" transform="translate(189,35)"/>
<path d="M0 0 C3.6875 0.4375 3.6875 0.4375 6.5 2.625 C8.52260721 5.22549498 9.70619159 7.31515504 10.6875 10.4375 C6.93547995 9.55517565 3.34888343 8.32160156 -0.2890625 7.05859375 C-2.27839036 6.33968755 -2.27839036 6.33968755 -4.3125 6.4375 C-4.6425 7.7575 -4.9725 9.0775 -5.3125 10.4375 C-5.3125 8.7875 -5.3125 7.1375 -5.3125 5.4375 C-3.6625 4.7775 -2.0125 4.1175 -0.3125 3.4375 C-1.9625 3.1075 -3.6125 2.7775 -5.3125 2.4375 C-3.3125 0.4375 -3.3125 0.4375 0 0 Z " fill="#5624CB" transform="translate(154.3125,32.5625)"/>
<path d="M0 0 C0 0.66 0 1.32 0 2 C0.66 2 1.32 2 2 2 C2 2.66 2 3.32 2 4 C1.38511719 4.01417969 0.77023437 4.02835938 0.13671875 4.04296875 C-2.33190911 4.18864535 -4.59893021 4.39973255 -7 5 C-8.88051585 7.35589996 -8.88051585 7.35589996 -10 10 C-12.1875 11.3125 -12.1875 11.3125 -14 12 C-13.05066101 8.64566891 -12.10251165 5.30753495 -11 2 C-7.28944583 -0.01430083 -4.17148265 -0.19402245 0 0 Z " fill="#5222D8" transform="translate(270,33)"/>
<path d="M0 0 C1.85546875 0.22265625 1.85546875 0.22265625 4 1 C5.30078125 2.99609375 5.30078125 2.99609375 6.3125 5.4375 C6.65925781 6.24058594 7.00601563 7.04367188 7.36328125 7.87109375 C8 10 8 10 7 12 C5 9 5 9 5 6 C3.81606598 9.55180206 4.30734554 10.54541466 5.5 14 C7.11111111 18.66666667 7.11111111 18.66666667 6 22 C4.79428057 19.09053687 3.61371775 16.17150084 2.4375 13.25 C2.09525391 12.425 1.75300781 11.6 1.40039062 10.75 C1.08134766 9.95078125 0.76230469 9.1515625 0.43359375 8.328125 C-0.01415405 7.22839355 -0.01415405 7.22839355 -0.47094727 6.10644531 C-1.07674986 3.69441726 -0.7935828 2.32784287 0 0 Z " fill="#5728C9" transform="translate(98,26)"/>
<path d="M0 0 C2.5625 2.0625 2.5625 2.0625 4 4 C3.29488281 3.68289062 2.58976562 3.36578125 1.86328125 3.0390625 C-1.12505879 1.95461714 -3.65069658 1.6035641 -6.8125 1.375 C-7.78832031 1.30023438 -8.76414063 1.22546875 -9.76953125 1.1484375 C-10.50558594 1.09945312 -11.24164063 1.05046875 -12 1 C-12 1.66 -12 2.32 -12 3 C-9.36 3 -6.72 3 -4 3 C-4 3.33 -4 3.66 -4 4 C-6.64 4.66 -9.28 5.32 -12 6 C-12.66 9.63 -13.32 13.26 -14 17 C-14.33 17 -14.66 17 -15 17 C-15 13.04 -15 9.08 -15 5 C-15.99 5.33 -16.98 5.66 -18 6 C-16.98601968 2.73273008 -15.93743422 1.96297127 -12.9375 0.1875 C-8.57584063 -1.47321549 -4.45225298 -1.30645261 0 0 Z " fill="#562ABC" transform="translate(201,34)"/>
<path d="M0 0 C1.0725 -0.01417969 2.145 -0.02835938 3.25 -0.04296875 C6 0.1875 6 0.1875 8 2.1875 C4.37 5.1575 0.74 8.1275 -3 11.1875 C-3.33 10.1975 -3.66 9.2075 -4 8.1875 C-3.01 8.1875 -2.02 8.1875 -1 8.1875 C-1 6.8675 -1 5.5475 -1 4.1875 C-0.34 3.8575 0.32 3.5275 1 3.1875 C-1.31 2.8575 -3.62 2.5275 -6 2.1875 C-6.33 3.1775 -6.66 4.1675 -7 5.1875 C-8.65 4.8575 -10.3 4.5275 -12 4.1875 C-7.69278659 0.88530305 -5.48126333 0.03294028 0 0 Z " fill="#5049BF" transform="translate(29,46.8125)"/>
<path d="M0 0 C0.99 0.33 1.98 0.66 3 1 C3 1.66 3 2.32 3 3 C7.29 3 11.58 3 16 3 C15.34 4.32 14.68 5.64 14 7 C9.92285872 7.93573734 7.1450453 8.21926399 3.0625 7.4375 C1 6 1 6 0.1875 2.875 C0.125625 1.92625 0.06375 0.9775 0 0 Z " fill="#5025CC" transform="translate(258,54)"/>
<path d="M0 0 C0.99 0.33 1.98 0.66 3 1 C3.75 4.1875 3.75 4.1875 4 8 C2.0625 10.9375 2.0625 10.9375 0 13 C-0.99 12.67 -1.98 12.34 -3 12 C-2.01 11.67 -1.02 11.34 0 11 C0 10.34 0 9.68 0 9 C-1.051875 9.185625 -2.10375 9.37125 -3.1875 9.5625 C-6.57119882 9.95079331 -8.76425888 9.88247485 -12 9 C-12 8.34 -12 7.68 -12 7 C-8.7 7.33 -5.4 7.66 -2 8 C-2.5739739 3.79819816 -2.5739739 3.79819816 -6 2 C-4.35 2.33 -2.7 2.66 -1 3 C-0.67 4.65 -0.34 6.3 0 8 C0.66 8 1.32 8 2 8 C1.34 5.36 0.68 2.72 0 0 Z " fill="#562CBF" transform="translate(161,48)"/>
<path d="M0 0 C0.66 0 1.32 0 2 0 C3.32229189 2.64458379 3.09677194 4.67761301 3.0625 7.625 C3.05347656 8.62789062 3.04445312 9.63078125 3.03515625 10.6640625 C3.02355469 11.43492188 3.01195312 12.20578125 3 13 C3.99 13 4.98 13 6 13 C6 9.04 6 5.08 6 1 C8.42534046 5.85068093 8.31592312 8.82833012 7 14 C4.9375 17.0625 4.9375 17.0625 3 19 C2.34 18.67 1.68 18.34 1 18 C1.33 17.34 1.66 16.68 2 16 C0.68 15.67 -0.64 15.34 -2 15 C-1.51015625 14.5978125 -1.0203125 14.195625 -0.515625 13.78125 C1.40004625 11.52984255 1.34710475 10.41314258 1.25 7.5 C1.23453125 6.7265625 1.2190625 5.953125 1.203125 5.15625 C1.06471705 2.8177193 1.06471705 2.8177193 0 0 Z " fill="#552CBD" transform="translate(201,40)"/>
<path d="M0 0 C1.875 0.3125 1.875 0.3125 4 1 C4.66 1.99 5.32 2.98 6 4 C4.68 4.33 3.36 4.66 2 5 C2 6.65 2 8.3 2 10 C2.99 10 3.98 10 5 10 C5.144375 10.7425 5.28875 11.485 5.4375 12.25 C5.90187492 14.52027739 6.41863569 16.75759479 7 19 C3.71411122 16.83823107 2.17771234 15.44004961 0.6875 11.75 C-0.05958553 7.674988 -0.14492925 4.13048369 0 0 Z " fill="#5046C8" transform="translate(23,12)"/>
<path d="M0 0 C2 1.375 2 1.375 4 4 C4.35791096 7.3580469 4.23115823 10.63536357 4 14 C-0.59151206 14 -1.33182124 13.31497074 -4.75 10.5 C-5.94882812 9.52546875 -5.94882812 9.52546875 -7.171875 8.53125 C-7.77515625 8.0259375 -8.3784375 7.520625 -9 7 C-8.34 6.67 -7.68 6.34 -7 6 C-4.36 7.98 -1.72 9.96 1 12 C1.33 9.36 1.66 6.72 2 4 C1.34 3.67 0.68 3.34 0 3 C0 2.01 0 1.02 0 0 Z " fill="#514BBD" transform="translate(39,25)"/>
<path d="M0 0 C2.64 1.98 5.28 3.96 8 6 C7.67 6.99 7.34 7.98 7 9 C5.22950311 9.05410687 3.45853151 9.09284119 1.6875 9.125 C0.20830078 9.15980469 0.20830078 9.15980469 -1.30078125 9.1953125 C-4 9 -4 9 -7 7 C-5.02 7 -3.04 7 -1 7 C-0.67 6.34 -0.34 5.68 0 5 C0.99 5.33 1.98 5.66 3 6 C2.2575 5.071875 2.2575 5.071875 1.5 4.125 C0 2 0 2 0 0 Z " fill="#4B47C6" transform="translate(78,55)"/>
<path d="M0 0 C1.65 0 3.3 0 5 0 C4.34 1.65 3.68 3.3 3 5 C-6.41002278 5.3690205 -6.41002278 5.3690205 -11 3 C-10.67 2.34 -10.34 1.68 -10 1 C-6.7 1.33 -3.4 1.66 0 2 C0 1.34 0 0.68 0 0 Z " fill="#5520DA" transform="translate(198,56)"/>
<path d="M0 0 C-0.66666667 1.33333333 -1.33333333 2.66666667 -2 4 C-3.051875 3.979375 -4.10375 3.95875 -5.1875 3.9375 C-8.32704904 3.98896802 -10.96883396 4.26517187 -14 5 C-14.33 3.68 -14.66 2.36 -15 1 C-9.4584498 -0.96263236 -5.79141983 -1.01603857 0 0 Z " fill="#5B22DA" transform="translate(233,35)"/>
<path d="M0 0 C0.66 0 1.32 0 2 0 C2 8.25 2 16.5 2 25 C0.68 24.67 -0.64 24.34 -2 24 C-1.67 23.34 -1.34 22.68 -1 22 C-0.67 22 -0.34 22 0 22 C0.33 15.73 0.66 9.46 1 3 C-0.32 3 -1.64 3 -3 3 C-3 3.99 -3 4.98 -3 6 C-3.66 6 -4.32 6 -5 6 C-5.33 4.68 -5.66 3.36 -6 2 C-4.02 2 -2.04 2 0 2 C0 1.34 0 0.68 0 0 Z " fill="#591FE6" transform="translate(279,35)"/>
<path d="M0 0 C0.05386629 2.12472576 0.09273071 4.24983652 0.125 6.375 C0.14820313 7.55835938 0.17140625 8.74171875 0.1953125 9.9609375 C0 13 0 13 -2 15 C-2.33 12.03 -2.66 9.06 -3 6 C-4.98 6.66 -6.96 7.32 -9 8 C-8.04578192 6.85073734 -7.08647955 5.70569459 -6.125 4.5625 C-5.59132812 3.92441406 -5.05765625 3.28632812 -4.5078125 2.62890625 C-2.07434053 0 -2.07434053 0 0 0 Z " fill="#514ABA" transform="translate(43,49)"/>
<path d="M0 0 C0.33 1.32 0.66 2.64 1 4 C-1.75924185 5.80411967 -2.88972103 6.0127245 -6.25 5.625 C-7.1575 5.41875 -8.065 5.2125 -9 5 C-9 4.01 -9 3.02 -9 2 C-3.375 0 -3.375 0 0 0 Z " fill="#544BE6" transform="translate(18,57)"/>
<path d="M0 0 C1.2989839 0.90626784 2.58893167 1.82549537 3.875 2.75 C4.59429688 3.26046875 5.31359375 3.7709375 6.0546875 4.296875 C8.08570565 6.07503547 8.97855012 7.52701607 10 10 C6.52674819 11.1577506 3.63932552 11.06866652 0 11 C0.66 10.67 1.32 10.34 2 10 C2 9.34 2 8.68 2 8 C2.66 8 3.32 8 4 8 C3.525625 7.236875 3.05125 6.47375 2.5625 5.6875 C1 3 1 3 0 0 Z " fill="#493FCE" transform="translate(26,33)"/>
<path d="M0 0 C0.33 0.66 0.66 1.32 1 2 C1.66 2 2.32 2 3 2 C3 5.3 3 8.6 3 12 C1.02 10.68 -0.96 9.36 -3 8 C-2.37240135 5.07120629 -1.41377341 2.63904371 0 0 Z " fill="#534AE6" transform="translate(62,64)"/>
<path d="M0 0 C0.99 0.33 1.98 0.66 3 1 C2.34 1 1.68 1 1 1 C1 1.66 1 2.32 1 3 C1.66 3 2.32 3 3 3 C4.625 5 4.625 5 6 7 C6.99 6.67 7.98 6.34 9 6 C9 6.99 9 7.98 9 9 C7.35 9.33 5.7 9.66 4 10 C0.38860104 6.12435233 0.38860104 6.12435233 -1 4 C-0.8125 1.625 -0.8125 1.625 0 0 Z " fill="#5A4DEA" transform="translate(67,51)"/>
<path d="M0 0 C0.33 0 0.66 0 1 0 C1.06058594 0.83144531 1.12117187 1.66289063 1.18359375 2.51953125 C1.26738281 3.60621094 1.35117188 4.69289063 1.4375 5.8125 C1.55931641 7.43091797 1.55931641 7.43091797 1.68359375 9.08203125 C1.90212461 12.05989905 1.90212461 12.05989905 3 15 C1.68 15.33 0.36 15.66 -1 16 C-1.02685095 13.52076199 -1.04676547 11.0418116 -1.0625 8.5625 C-1.07506836 7.50192383 -1.07506836 7.50192383 -1.08789062 6.41992188 C-1.09653588 4.61306441 -1.05220011 2.80612397 -1 1 C-0.67 0.67 -0.34 0.34 0 0 Z " fill="#591DE6" transform="translate(236,44)"/>
<path d="M0 0 C0.66 0.33 1.32 0.66 2 1 C0.02 3.31 -1.96 5.62 -4 8 C-2.02 8.66 -0.04 9.32 2 10 C2 10.33 2 10.66 2 11 C-1.96 10.67 -5.92 10.34 -10 10 C-6.66666667 6.66666667 -3.33333333 3.33333333 0 0 Z " fill="#534FB0" transform="translate(13,53)"/>
<path d="M0 0 C2.23551759 3.35327639 2.17283528 3.90743657 1.625 7.6875 C1.45871094 8.89986328 1.45871094 8.89986328 1.2890625 10.13671875 C1.19367188 10.75160156 1.09828125 11.36648437 1 12 C-2.93673644 10.68775452 -5.22719294 9.08089673 -8 6 C-3.25 6.75 -3.25 6.75 -1 9 C-0.67 6.03 -0.34 3.06 0 0 Z " fill="#534DB9" transform="translate(65,66)"/>
<path d="M0 0 C1.65 0.33 3.3 0.66 5 1 C4.67 2.65 4.34 4.3 4 6 C3.01 6.33 2.02 6.66 1 7 C0.34 6.67 -0.32 6.34 -1 6 C-0.67 4.02 -0.34 2.04 0 0 Z " fill="#5631C2" transform="translate(245,55)"/>
<path d="M0 0 C0.99 0.33 1.98 0.66 3 1 C3 2.65 3 4.3 3 6 C1.35 6.33 -0.3 6.66 -2 7 C-2.33 5.35 -2.66 3.7 -3 2 C-2.01 1.34 -1.02 0.68 0 0 Z " fill="#4928BA" transform="translate(291,23)"/>
<path d="M0 0 C13.80159755 -0.86140345 13.80159755 -0.86140345 18.375 2.5 C19.24125 3.325 20.1075 4.15 21 5 C17.79604584 5 15.90600261 4.25664978 13 3 C13 2.34 13 1.68 13 1 C9.7 1 6.4 1 3 1 C2.67 1.99 2.34 2.98 2 4 C1.34 2.68 0.68 1.36 0 0 Z " fill="#5750B5" transform="translate(5,27)"/>
<path d="M0 0 C0.99 0.33 1.98 0.66 3 1 C0.02575322 5.00379374 -3.05323863 7.99702939 -7 11 C-7.66 11 -8.32 11 -9 11 C-9 10.01 -9 9.02 -9 8 C-7.68 7.67 -6.36 7.34 -5 7 C-5 6.34 -5 5.68 -5 5 C-4.01 5 -3.02 5 -2 5 C-2.33 4.01 -2.66 3.02 -3 2 C-2.01 2 -1.02 2 0 2 C0 1.34 0 0.68 0 0 Z " fill="#5248C7" transform="translate(38,63)"/>
<path d="M0 0 C0.33 0.99 0.66 1.98 1 3 C1.99 3 2.98 3 4 3 C4 4.65 4 6.3 4 8 C4.66 8 5.32 8 6 8 C6 8.99 6 9.98 6 11 C3.525 10.01 3.525 10.01 1 9 C1 7.68 1 6.36 1 5 C0.34 5 -0.32 5 -1 5 C-0.67 3.35 -0.34 1.7 0 0 Z " fill="#5318E3" transform="translate(108,49)"/>
<path d="M0 0 C6.75 0.75 6.75 0.75 9 3 C9.125 6.125 9.125 6.125 9 9 C8.34 9 7.68 9 7 9 C6.7525 8.195625 6.505 7.39125 6.25 6.5625 C5.8375 5.716875 5.425 4.87125 5 4 C2.97536745 3.34786708 2.97536745 3.34786708 1 3 C0.67 2.01 0.34 1.02 0 0 Z " fill="#571CE4" transform="translate(154,47)"/>
<path d="M0 0 C1.0725 0.00515625 2.145 0.0103125 3.25 0.015625 C4.85875 0.00789063 4.85875 0.00789063 6.5 0 C9.25 0.265625 9.25 0.265625 11.25 2.265625 C7.29 2.265625 3.33 2.265625 -0.75 2.265625 C-0.75 2.925625 -0.75 3.585625 -0.75 4.265625 C-2.07 3.605625 -3.39 2.945625 -4.75 2.265625 C-2.75 0.265625 -2.75 0.265625 0 0 Z " fill="#4E49BE" transform="translate(57.75,46.734375)"/>
<path d="M0 0 C0.33 0 0.66 0 1 0 C1 5.94 1 11.88 1 18 C0.01 18.33 -0.98 18.66 -2 19 C-2.33 17.35 -2.66 15.7 -3 14 C-2.01 13.67 -1.02 13.34 0 13 C0 8.71 0 4.42 0 0 Z " fill="#4B18D9" transform="translate(136,43)"/>
<path d="M0 0 C2.64 0 5.28 0 8 0 C7.01 2.31 6.02 4.62 5 7 C3.0625 6.3125 3.0625 6.3125 1 5 C0.25 2.375 0.25 2.375 0 0 Z " fill="#574EDC" transform="translate(9,29)"/>
<path d="M0 0 C2.475 0.99 2.475 0.99 5 2 C4.01 2.33 3.02 2.66 2 3 C2.91488673 5.06573804 2.91488673 5.06573804 5 7 C7.95485056 7.95351561 10.9369519 8.51196718 14 9 C14 9.33 14 9.66 14 10 C9.00245633 10.29397316 6.01581652 10.0979156 2 7 C0 4 0 4 0 0 Z " fill="#542EB7" transform="translate(144,52)"/>
<path d="M0 0 C2.97 0 5.94 0 9 0 C9 0.99 9 1.98 9 3 C8.34 3.66 7.68 4.32 7 5 C4.69 4.01 2.38 3.02 0 2 C0 1.34 0 0.68 0 0 Z " fill="#534AE6" transform="translate(57,49)"/>
<path d="M0 0 C0.99 0.33 1.98 0.66 3 1 C3 1.66 3 2.32 3 3 C4.65 3 6.3 3 8 3 C8.66 4.32 9.32 5.64 10 7 C5.545 6.01 5.545 6.01 1 5 C0.67 3.35 0.34 1.7 0 0 Z " fill="#5D24E4" transform="translate(258,54)"/>
<path d="M0 0 C1.32 0.99 2.64 1.98 4 3 C3.34 4.32 2.68 5.64 2 7 C0.68 6.67 -0.64 6.34 -2 6 C-1.34 4.02 -0.68 2.04 0 0 Z " fill="#5333B5" transform="translate(172,23)"/>
<path d="M0 0 C3.63 0.33 7.26 0.66 11 1 C10.67 1.99 10.34 2.98 10 4 C7 5 7 5 5.17578125 4.22265625 C3.45052083 3.1484375 1.72526042 2.07421875 0 1 C0 0.67 0 0.34 0 0 Z " fill="#524CB9" transform="translate(75,26)"/>
<path d="M0 0 C3.94139078 1.66751148 6.7892812 4.22710649 10 7 C9.67 7.66 9.34 8.32 9 9 C7.68 9 6.36 9 5 9 C4.01 7.02 3.02 5.04 2 3 C1.34 3 0.68 3 0 3 C0 2.01 0 1.02 0 0 Z " fill="#5149C7" transform="translate(29,16)"/>
<path d="M0 0 C2.0625 0.4375 2.0625 0.4375 4 1 C3.34 3.31 2.68 5.62 2 8 C1.34 6.68 0.68 5.36 0 4 C-0.99 4.66 -1.98 5.32 -3 6 C-1.125 1.125 -1.125 1.125 0 0 Z " fill="#502BB9" transform="translate(124,26)"/>
<path d="M0 0 C0.99 0 1.98 0 3 0 C3 1.98 3 3.96 3 6 C1.68 6 0.36 6 -1 6 C-1.625 4.125 -1.625 4.125 -2 2 C-1.34 1.34 -0.68 0.68 0 0 Z " fill="#4D33B7" transform="translate(134,24)"/>
<path d="M0 0 C0.33 0 0.66 0 1 0 C1 1.98 1 3.96 1 6 C1.99 6.33 2.98 6.66 4 7 C2.68 8.32 1.36 9.64 0 11 C-0.19406478 9.35492782 -0.38007935 7.70890406 -0.5625 6.0625 C-0.66691406 5.14597656 -0.77132813 4.22945313 -0.87890625 3.28515625 C-0.91886719 2.53105469 -0.95882813 1.77695313 -1 1 C-0.67 0.67 -0.34 0.34 0 0 Z " fill="#4A46B6" transform="translate(24,68)"/>
<path d="M0 0 C0.66 0.33 1.32 0.66 2 1 C1.47731534 3.76276177 0.89130413 6.3260876 0 9 C-0.66 9 -1.32 9 -2 9 C-2.25 3.375 -2.25 3.375 0 0 Z " fill="#5B20E2" transform="translate(123,29)"/>
<path d="M0 0 C0.66 0 1.32 0 2 0 C2.20140476 3.62528568 1.85776765 5.86501708 0 9 C-0.66 9 -1.32 9 -2 9 C-2.20140476 5.37471432 -1.85776765 3.13498292 0 0 Z " fill="#5B20E5" transform="translate(119,39)"/>
<path d="M0 0 C0.99 0 1.98 0 3 0 C3 2.31 3 4.62 3 7 C2.01 7 1.02 7 0 7 C0 4.69 0 2.38 0 0 Z " fill="#5A23E7" transform="translate(290,35)"/>
<path d="M0 0 C1.98 0.66 3.96 1.32 6 2 C5.401875 2.268125 4.80375 2.53625 4.1875 2.8125 C2.02775192 3.98493467 0.64209744 5.19369282 -1 7 C-1.66 6.34 -2.32 5.68 -3 5 C-2.34 4.67 -1.68 4.34 -1 4 C-0.34786708 1.97536745 -0.34786708 1.97536745 0 0 Z " fill="#554DEB" transform="translate(76,28)"/>
<path d="M0 0 C2.0625 0.4375 2.0625 0.4375 4 1 C4 1.99 4 2.98 4 4 C3.01 3.34 2.02 2.68 1 2 C1.33 4.31 1.66 6.62 2 9 C-0.57781906 6.42218094 -0.62129616 4.5598161 -1 1 C-0.67 0.67 -0.34 0.34 0 0 Z " fill="#502EAF" transform="translate(98,26)"/>
<path d="M0 0 C1.32 0.66 2.64 1.32 4 2 C4 2.66 4 3.32 4 4 C0.52674819 5.1577506 -2.36067448 5.06866652 -6 5 C-6 4.67 -6 4.34 -6 4 C-4.02 3.34 -2.04 2.68 0 2 C0 1.34 0 0.68 0 0 Z " fill="#4B46B2" transform="translate(32,39)"/>
<path d="M0 0 C0.66 0 1.32 0 2 0 C3.60355101 3.50776784 4.22036864 6.14354879 4 10 C3.34 10 2.68 10 2 10 C1.34 6.7 0.68 3.4 0 0 Z " fill="#5D1DEA" transform="translate(101,32)"/>
<path d="M0 0 C2.0625 0.4375 2.0625 0.4375 4 1 C3.67 2.32 3.34 3.64 3 5 C2.34 5 1.68 5 1 5 C0.67 5.66 0.34 6.32 0 7 C-0.38133299 5.0085944 -0.71325582 3.00720923 -1 1 C-0.67 0.67 -0.34 0.34 0 0 Z " fill="#5045E1" transform="translate(25,15)"/>
<path d="M0 0 C1.875 0.3125 1.875 0.3125 4 1 C4.66 1.99 5.32 2.98 6 4 C4.68 4 3.36 4 2 4 C1.34 5.32 0.68 6.64 0 8 C0 5.36 0 2.72 0 0 Z " fill="#4A45B1" transform="translate(23,12)"/>
<path d="M0 0 C-5.41538462 4.06153846 -5.41538462 4.06153846 -8.375 3.75 C-8.91125 3.5025 -9.4475 3.255 -10 3 C-9.01 2.67 -8.02 2.34 -7 2 C-6.67 1.34 -6.34 0.68 -6 0 C-3 -1 -3 -1 0 0 Z " fill="#4E48BF" transform="translate(25,59)"/>
<path d="M0 0 C0.66 0.33 1.32 0.66 2 1 C2.625 3.0625 2.625 3.0625 3 5 C-0.14737182 4.30058404 -3.02588876 3.23921302 -6 2 C-2.25 0.875 -2.25 0.875 0 2 C0 1.34 0 0.68 0 0 Z " fill="#5438B1" transform="translate(162,38)"/>
<path d="M0 0 C3.36591866 1.44253657 5.51047079 3.33264727 8 6 C5.125 5.8125 5.125 5.8125 2 5 C0.625 2.4375 0.625 2.4375 0 0 Z " fill="#4C47BC" transform="translate(55,56)"/>
<path d="M0 0 C1.32 0 2.64 0 4 0 C4 1.98 4 3.96 4 6 C3.34 5.67 2.68 5.34 2 5 C2 4.34 2 3.68 2 3 C1.34 3 0.68 3 0 3 C0 2.01 0 1.02 0 0 Z " fill="#692AEF" transform="translate(276,38)"/>
</svg>
